<svg id="Layer_1" data-name="Layer 1" xmlns="http://www.w3.org/2000/svg" width="514" height="514" viewBox="0 0 514 514">
  <circle cx="257" cy="257" r="256.5" style="fill: #27aae1;stroke: #27aae1;stroke-miterlimit: 10"/>
  <path d="M109.78,299.42c47.47-41.8,132.28-34.18,152,0,13.94,24.17-10.19,52,4,66,22.39,22.08,93.4-36.58,116-16,16.26,14.81.83,64.66-26,96-37.34,43.61-107.52,64-142,39-24.9-18-11.11-45.15-39-69-35.71-30.54-81.22-5.68-97-30C64,364.13,84,322.16,109.78,299.42Z" transform="translate(-7 -8)" style="fill: #39b54a;stroke: #39b54a;stroke-miterlimit: 10"/>
  <path d="M123.74,65.32c42.84-22.88,110,37.36,126,19,9.81-11.29-14.18-35.72-4-51,14.94-22.45,99.75-19.48,120,30,11,27,1.84,65.39-22,80-40.5,24.8-107.64-28.5-120-12-9.63,12.84,32.2,43.58,23,73-9.65,30.83-73.34,53.79-115,29-31.53-18.76-37.1-56.93-39-70C88.24,132.54,93.37,81.53,123.74,65.32Z" transform="translate(-7 -8)" style="fill: #39b54a;stroke: #39b54a;stroke-miterlimit: 10"/>
  <path d="M322.24,246.08c.13-25.85,17-54.53,34-55,16.24-.44,17.55,25.24,47,40,26.36,13.21,47.71,3.86,51,13,3.79,10.53-21.67,30.86-45,41-14.18,6.17-47.58,20.69-70,3C322.1,274.55,322.22,250.75,322.24,246.08Z" transform="translate(-7 -8)" style="fill: #39b54a;stroke: #39b54a;stroke-miterlimit: 10"/>
</svg>
